<svg xmlns="http://www.w3.org/2000/svg" width="2280" height="1224"><path fill="#ffffff" d="M0 0h2280v1224H0z"/><path d="m1739 2 4 3c-7.98 37.07-7.98 37.07-13.08 47.13-1.25 2.55-1.54 5.07-1.92 7.87 5.34-1.78 7.75-8.48 10.31-13.31 2.61-4.78 5.76-9.05 9.02-13.4C1749 31 1749 31 1750 29h2c.13-.28.13-.28.81-1.69 1.29-2.51 2.72-4.9 4.19-7.31l6-1 1 3c-.29.51-.57 1.02-.87 1.54-1.32 2.34-2.63 4.68-3.94 7.02-.45.8-.91 1.6-1.37 2.43-2.57 4.59-4.83 9.15-6.82 14.01-2.42 5.16-5.16 10.11-8.05 15.02C1742 64 1742 64 1742 67l6-2q.33-1.05.66-2.13c1.69-3.63 4-5.97 6.78-8.81 6.34-6.65 11.99-13.75 17.56-21.06l5 1c-1.24 7.42-4.48 12.09-9 18l-2.37 3.18c-5.21 6.94-10.76 13.43-16.63 19.82-4.8 5.41-4.8 5.41-6 9h4l1-3 4-1 1-3c.85-.57 1.71-1.13 2.59-1.72 3.36-2.24 6.7-4.5 10.03-6.78.56-.38 1.12-.76 1.7-1.14 3.22-2.21 6-4.49 8.68-7.36l5-1c2 2 2 2 2 5-.46.4-.92.8-1.4 1.21-3.9 3.4-7.76 6.83-11.6 10.29-4.3 3.88-8.63 7.71-13 11.5l-1 4c.54-.27 1.07-.54 1.62-.81C1781 79 1781 79 1785 80v4c-5.2 3.56-10.58 6.79-16 10l-1 2c-.45.2-.45.2-2.75 1.19-3.41 1.68-5.08 3.73-7.25 6.81 5.42-1.26 10.24-3.41 15.2-5.88 3.59-1.74 6.85-2.64 10.8-3.12l1 4c-6.67 4.75-13.63 8.45-21 12-5.98 2.97-5.98 2.97-7 5 5.56-.32 10.24-.84 15.26-3.3 3.12-1.25 6.41-1.45 9.74-1.7l-1 5c-.51.2-1.02.39-1.54.59-2.34.91-4.68 1.82-7.02 2.72-.4.16-.4.16-2.43.94-4.71 1.83-9.38 3.73-14.01 5.75v2c2.11-.11 4.21-.24 6.31-.38.3-.01.3-.01 1.81-.09 3.14-.21 5.47-.39 7.88-2.53l5 1c-2.64 5.28-6.88 6.44-12 9l2 2v3c-4.66 2.55-8.68 4.47-14 5v3l10 1v3c-7.45 3.35-14.96 4.11-23 5l1 2 11 2v3c-2.64 2.64-7.29 1.63-11 2 2.28 2.28 4.41 4.12 7 6v3c-2.76 1.38-5.05 1.1-8.12 1.06-1.1-.01-2.2-.02-3.33-.02-.84-.02-1.68-.03-2.55-.04l1 3c.99.5.99.5 6 3l-1 4-22-2 1 3 9 4 1 4c-.34-.08-.34-.08-2.06-.5-3.4-.58-6.5-.57-9.94-.5l2 5c-.21.87-.41 1.73-.62 2.62-.44 3.95.16 5.77 1.62 9.38l-2 3-1 17-6 4c-1.35 2.71-1.07 5.01-1 8l3 5c.12 5.75.12 5.75-1 8l-6 1v3l4 2v4l-3 2v7l-4 5c.52 3.2 1.11 5.38 3 8-.11.83-.21 1.67-.32 2.53-.77 7.15-.73 12.8 2.32 19.47 5-1 5-1 6.43-2.43 5.57-5.57 5.57-5.57 7.21-7.13 3.85-4.07 5.54-10.24 7.36-15.44.2-.54.2-.54 1.19-3.25 2.55-9.66.3-18.62-2.6-27.85-1.06-3.4-2.03-6.83-2.97-10.28-.19-.64-.38-1.28-.58-1.94-1.34-5.03-.68-8.78.96-13.68 11.29-10.64 25.3-18.17 39.37-24.55 6.83-3.15 11.76-6.87 17.06-12.08 3.54-3.26 6.96-5.83 11.57-7.37v-2c.45-.26.9-.51 1.36-.78 6.39-3.8 11.99-8.43 17.64-13.22.77-.65 1.54-1.29 2.34-1.96 3.66-3.12 6.77-6.19 9.66-10.04.98-1.02 1.97-2.03 3-3l2 4 3 1c.21-.66.41-1.32.62-2 1.53-3.32 3.43-5.87 5.66-8.74 3.77-4.94 7.3-10.08 10.72-15.26h2l2-5h4c0 5 0 5-1.81 7.69-1.28 1.91-2.5 3.83-3.69 5.81-1.74 2.9-3.61 5.69-5.5 8.5l1 3 3-3h2c.26-.57.53-1.15.8-1.74 1.26-2.38 2.7-4.29 4.39-6.38 3.17-4.01 6.14-8.12 9.04-12.33 1.22-1.75 2.45-3.5 3.7-5.23.62-.87 1.24-1.74 1.88-2.63.57-.78 1.13-1.56 1.71-2.37 1.51-2.37 2.52-4.68 3.48-7.32h4c0 7 0 7-1.31 8.56-1.69 2.44-1.69 2.44-2.88 5.5-1.87 4.65-4.97 8.44-7.97 12.39-1.55 2.14-2.76 4.15-3.84 6.55 4.68-.46 7.26-2.58 10.62-5.62 4.54-3.95 9.15-7.24 14.29-10.38 6.83-4.3 14.38-9.29 20.09-15h6c-.57 3.92-2.42 5.94-5.06 8.81-.41.44-.81.88-1.22 1.33-3.08 3.31-6.38 6.25-9.84 9.16-1.91 1.72-3.49 3.53-5.13 5.51-6.44 7.58-14.49 13.5-22.84 18.81-2.88 2.08-4.8 4.52-6.91 7.38 6.55-1.65 12.61-4.24 18.81-6.88l6.21-2.61c1-.42 2-.85 3.04-1.28 3.55-1.49 7.13-2.92 10.71-4.33 3.12-1.26 6.18-2.64 9.25-4.02 1.64-.73 3.31-1.41 4.98-2.07 2-.81 2-.81 3-1.81h6c0 3.78-1.54 5.33-4 8-2.12 1.75-4.38 3.25-6.69 4.75l-1.96 1.29A194.7 194.7 0 0 1 1884 171c-1.48.66-2.96 1.33-4.44 2-4.12 1.84-8.31 3.47-12.56 5l-1 3c8.25-1.65 16.33-3.58 24.4-5.96 4.46-1.31 8.95-2.48 13.45-3.65 2.85-.74 5.62-1.55 8.41-2.5 2.76-.9 4.86-1.06 7.74-.89l1 3c-1.83 3.66-6.63 5.09-10.16 7-1.29.7-2.58 1.41-3.87 2.12-8.14 4.49-15.85 8.73-24.97 10.88-5.89 1.85-11.52 4.15-17 7 3.63 1.07 5.61.86 9.11-.45 9.34-2.7 20.25-1.66 29.89-1.55v4c-12.22 5.65-24.33 8.99-37.8 9.65-5.64.62-10.87 2.47-16.2 4.35 2.63.88 4.06 1.12 6.74 1.11h2.24c.4 0 .4 0 2.41-.01.81 0 1.63-.01 2.47-.01q3.915 0 7.83-.03c1.77 0 3.54-.01 5.3-.01 4.34-.01 8.67-.03 13.01-.05l1 4c-4.06 1.46-7.82 2.37-12.12 2.94-6.44.92-12.6 2.36-18.88 4.06 2 2 2 2 11 3l2 3-2 3h-41v4c.75.17 1.5.34 2.27.52l2.98.73c.97.23 1.95.46 2.95.7 3.12 1.17 4.64 2.56 6.8 5.05l-1 2c-3.71.15-6.35.23-9.88-1-4.1-1.31-7.85-1.17-12.12-1 .49.5.49.5 3 3v4l-13 1v5c-10.11 9-10.11 9-14 9l1 9c-.99 1.15-.99 1.15-6 7l-1 11c-2.17 2.92-4.13 5.16-7.06 7.31-2.46 1.96-3.36 3.38-4.25 6.38-2.85 8.74-10.22 14.44-17.88 18.88-4.78 2.43-9.77 4.03-14.87 5.62-1.03.33-2.05.66-3.11 1q-3 .96-6.03 1.92c-2.54.81-5.07 1.66-7.6 2.52-3.73 1.25-7.43 2.21-11.26 3.06-1.13.25-2.25.5-3.41.76-.42.09-.42.09-2.53.55-1 5-1 5-.34 6.26 2.24 4.33 4.21 8.74 6.09 13.24 2.25 5.36 4.73 10.57 7.37 15.75 2.14 4.2 4.21 8.34 5.88 12.75 2.49 6.54 5.78 12.69 8.95 18.92 1 1.98 1.98 3.97 2.96 5.96 3.77 7.68 7.73 15.24 11.84 22.74.46.85.92 1.69 1.39 2.55 2.44 4.42 4.99 8.68 7.86 12.83v2h2c.27.6.54 1.2.81 1.81 1.17 2.16 2.38 3.55 4.19 5.19v2l3 1c.28.34.28.34 1.69 2.09l2.31 2.85c.41.5.82 1 1.24 1.52 2.5 3.06 5.08 6.01 7.76 8.92 4.91 5.47 8.97 11.48 13 17.62.33.5.66 1 1 1.51 7.33 11.21 13.51 23.21 19.34 35.25.43.89.86 1.78 1.3 2.7.39.8.77 1.6 1.16 2.42 1.19 2.11 2.43 3.49 4.2 5.12 1.06 1.34 2.1 2.7 3.12 4.06 3.36 4.37 6.96 8.45 10.68 12.51 2.03 2.24 3.99 4.51 5.95 6.81 2.53 2.91 5.21 5.22 8.25 7.62 1.32 1.48 2.56 3 3.8 4.54 1.6 1.95 3.38 3.71 5.2 5.46h2v-7h-2c-1.97-7.9-2.11-8.69 1-15 2.71-4.5 5.59-8.89 8.51-13.26 4.93-7.73 8.15-16.18 11.59-24.64.79-1.85 1.67-3.6 2.63-5.37 1.32-2.83 1.6-4.52 1.46-7.61-.02-.39-.02-.39-.08-2.36-.2-3.26-2.9-5.54-5.11-7.76-7.46-5.73-18.9-6.21-28-6l-2-3c2-2 2-2 4.3-2.15.5-.04.5-.04 3.01-.23.99-.06 1.97-.13 2.99-.21 2.55-.39 3.76-.78 5.7-2.41l1-5h6l1 3c.59.27 1.18.55 1.78.83 2.17 1.14 3.82 2.37 5.68 3.96.64.53 1.27 1.06 1.93 1.6 1.32 1.11 2.64 2.23 3.95 3.35 3.9 3.24 6.54 5 11.66 5.26l5-3h2l1-3c.74-.64 1.48-1.28 2.25-1.94 4.76-4.55 7.62-11.96 7.89-18.44C1923 474 1923 474 1920 471v-2c-.68-.19-1.36-.37-2.06-.56-7.51-3.68-12.5-11-15.94-18.44-.94-3.31-1.58-6.58-2-10-3.73-3.9-3.73-3.9-6.62-4.13-.64 0-1.28-.01-1.94-.01-.73-.01-1.45-.02-2.2-.02-.4-.01-.4-.01-2.4-.02-1.68-.02-3.36-.04-5.04-.07-2.64-.03-5.28-.06-7.92-.08-18.75-.11-18.75-.11-26.88-4.67-.68-.36-1.36-.71-2.06-1.08-1.89-1.01-3.73-2.07-5.56-3.17-.63-.36-1.25-.73-1.89-1.1-4.48-2.62-4.48-2.62-5.49-5.65h-2l1-3c3.96.57 6.67 1.81 10 4h3l2-3c3.78 1.09 6.47 1.91 9 5 6.47 1.86 12.94 1.53 19.29-.55 5.37-1.42 10.33-.37 15.55 1.1 4.01.83 8.08.6 12.16.45l4-3h2c.13-.38.13-.38.81-2.31 1.13-2.56 2.1-3.89 4.19-5.69l3 1c-.19.53-.37 1.07-.57 1.62-.85 2.45-1.67 4.92-2.49 7.38-.3.84-.59 1.68-.9 2.54-1.86 5.66-2.22 9.61-1.04 15.46 7.44 10.03 16.29 11.83 28 14 1.36-9.03 1.5-16.78-.94-25.62-3.44-12.72-3.52-24.86-1.74-37.87.64-4.79.59-8.76-.32-13.51-11.59-6.06-21.59-10.52-35-9-2.83 1.04-4.58 2.16-7 4l-2-1v-7c-3.19.11-6.38.24-9.56.38-.45.01-.45.01-2.72.09-4.59.2-8.61.65-12.98 2.06-3.43.92-6.96.99-10.49 1.16-.38.02-.38.02-2.29.14-3.41.19-5.66.27-8.96-.83-4-6-4-6-4-11l3-1c3.33 2 6.67 4 10 6 4.06-.49 6.85-1.93 10.25-4.06 3.13-1.68 6.09-2.07 9.6-1.96l2.24.06c.4.01.4.01 2.39.08.82.02 1.64.05 2.48.07 2.59.08 5.19.16 7.79.25 1.76.05 3.53.1 5.29.16 4.32.12 8.64.26 12.96.4l1-1c-.39-10.31-1.51-19.99-4-30-5-4-5-4-6.83-4.24l-8.42-1.14c-1.01-.13-2.03-.27-3.07-.41-5.08-.69-10.13-1.43-15.18-2.33-6.46-1.14-12.96-1.51-19.5-1.88l-1-4 2-2 18 1c-1.13-5.63-1.13-5.63-2.56-8.31-.48-.89-.95-1.78-1.44-2.69l1-3c3.4 2.05 6.05 3.86 8.5 7 4.38 5.52 9.92 7.85 16.5 10q.93.315 1.89.63c3.46 1.07 6.49 1.59 10.11 1.37.49-1.32.49-1.32 3-8 .66-.16.66-.16 4-1 2.6 5.21 2.06 12.4 2 18.12-.04 9.38 1.41 15.61 6 23.88.67 1.33 1.34 2.66 2 4l3 1 2 2.12c4.57 4.78 10.69 7.94 16.35 11.26.69.41 1.38.82 2.09 1.24.59.35 1.19.69 1.81 1.04 2.35 1.8 3.97 3.99 5.75 6.34-.01 1.05-.02 2.1-.04 3.18 0 1.37-.01 2.75-.02 4.13l-.03 2.09c0 .67 0 1.34-.01 2.03 0 .61-.01 1.22-.01 1.85.11 1.72.11 1.72 1.11 4.72h3c6.83-10.25 5.76-14.07 3.66-25.27-2.13-8.84-7.12-17.58-12.66-24.73l.06-1.71c.71-21.95-3.02-34.91-18.06-51.29-1.28-1.43-2.55-2.87-3.81-4.31-.27-.31-.27-.31-1.65-1.87-2.83-3.34-5.13-6.72-7.23-10.57-.43-.8-.87-1.6-1.32-2.42-.16-.3-.16-.3-.99-1.83-5.53-3.61-10.49-5-17-6l-1-4 4-3c6 1 6 1 7 2h10l3 2c.05.37.05.37.33 2.27a637 637 0 0 1 .94 5.93c.77 2.97 1.79 4.47 3.73 6.8.62 1.14 1.23 2.28 1.81 3.44 3.66 6.48 10.56 11.14 17.63 13.31.51.08 1.03.17 1.56.25 4.23-3.65 5.13-8.08 5.88-13.44.81-4.84 2.04-7.76 5.12-11.56l3 1c-.88 6.75-.88 6.75-2 9-.53 4.02-.81 8.08-1.12 12.12-.05.59-.1 1.18-.14 1.79-1.07 14.03-1.5 27.92 4.26 41.09l2-1c.03-.75.05-1.49.08-2.26.09-2.77.19-5.54.29-8.31.05-1.2.09-2.4.13-3.6l.18-5.17c.04-1.03.08-2.07.11-3.14.21-2.52.21-2.52 1.21-4.52l4 1c.25 32.25.25 32.25-2.06 39.81-2.25 7.64-.43 13.22 3.06 20.19l2 2c4.64-.55 7.29-2.33 11-5 6.1.34 10.27 1.88 15.61 4.84 3.09 1.5 5.96 2.16 9.39 2.16l2-4 5 2 1 3c-5 5-5 5-13 6-.77-.42-1.54-.84-2.34-1.28-.5-.27-.5-.27-3.04-1.66-.99-.54-1.99-1.09-3.02-1.65-1.52-.82-3.05-1.64-4.6-2.41-1.49.5-1.49.5-9 3-.48 1.43-.95 2.87-1.43 4.3-.51 1.52-1.07 3.02-1.63 4.51-.8 2.71-1.08 4.73-1.25 7.5-.58 5.89-3.01 11.05-7.25 15.23a91 91 0 0 1-3.08 2.4c-1.83 1.43-3.08 3.14-4.36 5.06-.62 6.43.76 10.49 4 16 .19.34.19.34 1.16 2.06.93 1.65 1.88 3.3 2.84 4.94 3.32-.54 5.79-1.26 8.62-3.06 2.55-1.62 3.22-1.94 6.38-1.94l2 5h6l3-3v-23c3.68-6.14 3.68-6.14 8-8 3.05-.54 6.1-.74 9.19-.94 7.02-.58 13.86-1.45 20.75-2.94.74-.14 1.47-.29 2.23-.45 4.59-1.04 7.39-2.45 10.83-5.67.98-14.68 1.12-29.29 1-44l2-3c.82.33.82.33 5 2 .89 6.33 1.29 12.61 1.56 19 .05.97.09 1.93.13 2.93.11 2.35.21 4.71.31 7.07 1.15.5 1.15.5 7 3 .16.66.16.66 1 4l3 1c.12-.43.12-.43.75-2.62 1.18-3.59 3.07-6.32 5.25-9.38h5c2 2 2 2 2 7-12.51 16.41-29.98 22.91-49.12 28.5l-2.67.79c-1.72.5-3.44.99-5.16 1.48-5.35 1.55-10.16 3.56-15.05 6.23l-1 6c.44.48.87.97 1.32 1.47 3.68 4.14 7.11 8.35 10.32 12.87 1.34 1.63 2.55 2.6 4.36 3.66 5.86.21 10.43-.02 16-2 2.36-.16 4.63-.09 7 0 1 1 1 1 1 7-1.03.03-2.05.05-3.11.08-9.47.34-17.08 1.8-25.77 5.78-4.01 1.82-7.8 2.75-12.14 3.53-6.07 1.24-12.02 2.97-17.98 4.61l-3 5c.62.55 1.23 1.09 1.87 1.65 7.98 7.11 15.67 14.4 22.52 22.62 4.8 5.16 11.02 7.69 17.61 9.73v3c-.55.19-1.11.39-1.68.59-.72.26-1.45.52-2.2.79-.35.12-.35.12-2.17.77-1.95.85-1.95.85-3.95 2.85l1 8-6-2c-.21-.42-.21-.42-1.25-2.56-1.79-3.56-3.72-7.04-5.69-10.5-.33-.6-.67-1.2-1.01-1.82-4.4-7.73-8.66-11.9-17.05-15.12-6.33-1.7-12.47-2.25-19-2-5.01 2.98-8.39 6.44-12 11 1 6 1 6 4 9h6c-1 5-1 5-5 9-1.06.25-2.12.51-3.22.77-21.58 5.22-21.58 5.22-28.03 15.78-.73 1.25-1.46 2.51-2.19 3.76-3 5.11-6.08 10.1-9.47 14.96-1.92 3.05-2.19 5.54-2.08 9.05.02.84.04 1.68.05 2.55l.06 2.69c.09 6.59-.16 12.12-2.44 18.36-2.52 7.66.01 15.05 3.32 22.08.96 1.36 1.95 2.71 3 4v2l3 1c4.87 6.76 9.5 13.29 12.83 20.98 1.37 2.37 2.9 3.53 5.17 5.02 6.3.31 11.54.31 17.34-2.34 1.66-.66 1.66-.66 4.66-.66.13-.31.13-.31.81-1.88 1.21-2.16 2.05-2.95 4.19-4.12h3c-1.05 5.23-1.49 5.63-4.69 9.38-.68.81-1.37 1.62-2.07 2.46-2.34 2.26-4.17 3.18-7.24 4.16v4c.51-.03.51-.03 3.06-.19 17.62.1 33.7 8.18 48.94 16.19.97.51 1.94 1.01 2.93 1.53a188 188 0 0 1 13.63 8.03c8.13 5.23 16.53 8.99 25.56 12.33 2.88 1.11 2.88 1.11 4.78 2.13 3.76 1.76 7.83 2.04 11.91 2.6.47.07.47.07 2.84.41 5.56.75 10.94 1.13 16.54.97 10.7-.25 18.02 2.61 25.81 10 1.47 1.67 2.93 3.36 4.38 5.06 7.22 8.26 17.52 13.22 28.5 14.09 2.83.15 5.66.26 8.48.37 5.29.26 10.25 1.07 15.39 2.36.66.16 1.31.32 1.99.48 3.85 1.04 6.87 2.47 10.26 4.64 1.54.73 3.11 1.42 4.69 2.06.76.32 1.53.64 2.32.98 7.61 2.45 15.44 3.33 23.38 3.96 1.95.17 3.89.33 5.84.5l9.07.75c2.95.24 5.89.5 8.84.75.45.04.45.04 2.73.21 4.7.41 8.71 1.12 13.13 2.79 2.8.52 5.6.93 8.41 1.34 2.85.73 4.36 1.8 6.59 3.66 1.32.7 2.65 1.37 4 2v2l4 2c1.39 2.78 1.12 5.03 1.12 8.15v1.97c0 2.23 0 4.46-.01 6.69v4.94c0 4.7-.01 9.39-.02 14.08-.01 4.15-.01 8.31-.01 12.46-.01 12.43-.03 24.87-.06 37.3-.01 10.32-.03 20.64-.05 30.96-.06 44.22-.15 88.44-.26 132.66l-.03 12.5v3.14c-.05 16.99-.08 33.99-.11 50.99-.03 17.65-.07 35.31-.11 52.97-.03 9.83-.05 19.67-.06 29.5q-.015 12.45-.06 24.9c-.01 4.22-.02 8.44-.02 12.66l-.03 11.59c-.01 1.39-.01 2.79-.01 4.18.01 7.66-.38 14.9-2.28 22.36-2.58 1.29-4.4 1.11-7.29 1.1-.56 0-.56 0-3.43-.01-.62-.01-1.24-.01-1.88-.01-2.02-.02-4.03-.02-6.05-.03l-9-.03c-8.36-.04-16.72-.05-25.08-.05h-2.78c-27.23-.01-54.47.26-81.7.51l-5.95.06c-48.82.44-48.82.44-50.84 2.46H0V933c11.42-2.28 23.68-1.56 35 1 1.08.24 2.15.48 3.26.73 8.13 1.93 8.13 1.93 10.51 3.25 8.38 3.83 19.64 3.29 28.71 3.43 12.05.19 24.02.9 36.02 2.03.68.06 1.36.12 2.07.18 1.94.18 3.89.37 5.84.56.55.06.55.06 3.35.33 3.57.54 6.79 1.46 10.24 2.49 10.18 1.6 20.73 1.2 31 1 1.09-.02 2.17-.03 3.29-.05 8.29-.4 15.91-2.84 23.77-5.34 2.63-.83 5.29-1.59 7.94-2.36 3.88-1.13 3.88-1.13 5-2.25.44.01.44.01 2.67.07 1.17.02 2.34.04 3.52.05.57.02.57.02 3.48.08 3.25-.2 5.42-.81 8.33-2.2 4.09 2.16 6.32 4.33 9 8-.52 4.17-1.71 6.25-4.56 9.31l-1.94 2.12c-.5.52-.99 1.03-1.5 1.57v2c.66.5.66.5 4 3l1 7 2 1c.44-.3.44-.3 2.69-1.81a84 84 0 0 1 5.87-3.63c2.94-1.88 5-4.06 7.44-6.56 3.37-2.44 2.89-2 8-2l1 4c-3.76 5.06-7.58 7.86-13 11-1.44.91-2.88 1.83-4.31 2.75-2.31 1.48-4.05 2.37-6.69 3.25l2 6c12.49 4.59 12.49 4.59 19 4l3-2 4 1c.28.5.56.99.85 1.5 3.1 5.26 6.67 9.37 11.15 13.5l4 1c4-3 4-3 5-9 4.68-.93 9.11-1.12 13.88-1.06.68 0 1.37.01 2.08.01 4.93.04 7.74 1 11.52 4.37.38.41.75.82 1.14 1.24 1.78 1.83 3.21 3.18 5.38 4.44 11-1.57 17.87-9.59 25.36-17.43 6.54-6.76 12.61-10.13 22.08-10.82 3.48.1 6.73.92 10.11 1.75 2.66.54 5.24.76 7.95.94 3.55.27 6.49.78 9.81 2.06 8.45 3.08 19.22 3.79 27.69.5 3.05-1.62 5.55-3.55 8-6v-7c-2.65-.88-4.09-1.12-6.79-1.1-.72.01-1.43.01-2.16.01l-2.24.03c-.37 0-.37 0-2.27.01-1.85.01-3.69.03-5.54.05-3.18-2.97-5.64-6.18-8-9.81-.36-.54-.71-1.07-1.08-1.63-1.74-2.64-3.33-5.28-4.73-8.12a32 32 0 0 0-4.87-6.31c-.5-.5-1-1.01-1.52-1.53-2.24-2.22-4.51-4.42-6.8-6.6.43-.5.87-.99 1.31-1.5 4.1-6.07 5.18-12.44 5.75-19.62.69-8.13.69-8.13 1.9-11.72 6.03-18.31 4.7-38.94 1.89-57.67-.11-.77-.23-1.54-.35-2.33-.53-2.29-1.43-4.07-2.5-6.16-.44-1.71-.44-1.71-.71-3.44-.11-.66-.22-1.31-.33-1.99-.11-.7-.22-1.41-.34-2.13-1.33-8.02-2.95-15.96-4.66-23.9-.15-.75-.31-1.49-.47-2.25-.34-1.57-.68-3.14-1.03-4.71-1.31-6.07-1.95-12-2.21-18.2-.04-.96-.08-1.91-.13-2.89-.33-10.11.09-20.03 3.88-29.49.39-2.12.72-4.24 1-6.38.49-3.55 1-6.97 2.19-10.37 1.97-7.91-.78-15.1-4.19-22.25l-1-1c.76-6.43.76-6.43 2.06-9.5 1.25-3.33 1.08-5.96.94-9.5-2.45-2.78-5.09-4.21-8.38-5.88-6.07-3.25-9.89-5.99-12.8-12.44-1.35-2.76-3.06-5.28-4.73-7.85C357 656 357 656 356 653l-3-1c-.36-.45-.73-.89-1.1-1.36-2.52-3.03-4.95-5.8-8.09-8.2-2.39-1.93-3.81-3.72-5.02-6.61-.79-1.83-.79-1.83-2.08-4.13-4.09-7.71-5.46-15.14-3.71-23.7 3.35-10.89 9.48-19.63 17-28 4.26-5.17 8.42-10.33 12-16h2c.29-.58.57-1.16.87-1.76.7-1.39 1.42-2.77 2.17-4.13 2.38-4.45 3.54-8.08 3.96-13.11-4.3-9.31-9.35-18.05-17-25v-3l9-2c0-9.29 0-9.29-3.25-12.58-2.08-1.69-4.2-2.72-6.63-3.86-7.21-3.44-12.04-7.7-16.12-14.56 0-11 0-11 5-18 3.08-1.39 6.02-2.24 9.31-2.88 4.99-1.03 10.87-2.82 14.13-6.93 2.59-4.2 2.32-9.4 2.56-14.19l4-2c5 6 5 6 5.3 8.63l.45 3.49.42 3.45c1.21 6.35 6.2 11.26 10.27 16.05.23.28.23.28 1.41 1.7 2.81 3.33 5.65 6.08 9.15 8.68.46 1.33.92 2.67 1.38 4 .12.37.12.37.77 2.25 2.19 7.08 3.3 13.87 3.91 21.25l.48 5.41c.07.85.15 1.71.22 2.59.34 3.51.78 7 1.24 10.5-6.14 1.44-10.2.33-16-2-2.35 6.23-1.88 11.46-1 18l3 3c5-1 5-1 9-6h2l1-4c.48-.42.97-.84 1.47-1.27 4.97-4.32 9.81-8.76 14.59-13.29 1.49-1.41 2.98-2.81 4.46-4.21.75-.71 1.49-1.41 2.26-2.13 3.46-3.27 6.93-6.53 10.41-9.79.6-.56 1.2-1.12 1.81-1.7 3.14-2.94 6.33-5.77 9.67-8.48 1.41-1.2 2.67-2.48 3.95-3.82 2.11-2.05 3.69-3.21 6.38-4.31l.79-1.82c1.29-2.33 2.46-3.45 4.52-5.12 6.28-5.29 11.94-11.22 17.69-17.06h2l1-3c1.29-1.37 2.62-2.71 4-4h2c.26-.59.51-1.19.78-1.8 1.34-2.41 2.66-3.65 4.78-5.39.72-.61 1.43-1.23 2.17-1.86 1.48-1.27 2.96-2.54 4.45-3.81 5.74-5.27 9.33-10.99 13.14-17.74 9.61-17.03 9.61-17.03 17.68-19.4 2.67-.59 5.36-1.05 8.06-1.5.38-.06.38-.06 2.26-.39 5.56-.94 11.12-1.81 16.7-2.65 3.77-.58 7.51-1.26 11.27-1.96 1.92-.35 3.84-.7 5.77-1.04.99-.17 1.98-.34 3-.52.9-.16 1.8-.31 2.73-.48C587 398 587 398 589 397c1.18-.18 2.38-.32 3.57-.43.72-.07 1.45-.14 2.19-.22.39-.03.39-.03 2.36-.23 6.08-.62 12.02-1.45 18-2.68 7.93-1.62 15.81-2.13 23.88-2.44.39-.32.78-.63 1.18-.96 2.36-1.35 4.31-1.45 7.01-1.66.9-.08 1.8-.15 2.73-.23C652 388 652 388 656 390c-3.03 4.54-8.52 5.31-13.71 6.57-5.06.95-10.22 1.01-15.36 1.1-4.76.11-8.39.76-12.93 2.33-3.35.4-6.71.46-10.08.57-4.31.19-7.85.84-11.92 2.43-.41.15-.41.15-2.46.94-8.91 4.02-14.74 10.63-19.54 19.06.63 3.93 1.87 7.19 3.5 10.81 2.09 4.86 3.2 8.93 3.5 14.19-4.41 4.41-8.95 5.11-15 6-.7 4.4-1.11 8.53-1 13l-1 1c-.57-.01-.57-.01-3.46-.07-35.01-.48-64.65 3.58-90.99 28.6-1.57 1.49-3.17 2.96-4.78 4.42-2.04 1.86-4.08 3.72-6.1 5.59-2.84 2.63-5.74 5.17-8.67 7.71-3.24 2.83-6.42 5.74-9.61 8.64-1.6 1.41-3.25 2.77-4.94 4.07-10.85 9.01-20.69 25.01-22.33 39.23-.21 3.27-.2 6.54-.12 9.81l1.61 1.25c4.87 3.98 8.85 7.51 10.39 13.75.27 3.51.29 7.03.35 10.55.33 7.33 3.02 11.85 7.65 17.45l-1 5-10 1c-3.1 3.1-1.19 14.68-1.22 18.99-.02 2.03-.05 4.07-.08 6.11-.05 2.94-.07 5.87-.09 8.81l-.06 2.74c-.01 6.99 1.76 11.25 6.31 16.49.31.28.31.28 1.89 1.67.61.57 1.23 1.13 1.86 1.71 6.46 4 13.98 3.78 21.35 3.75h3.13c2.18 0 4.35 0 6.53-.01 3.3-.01 6.61 0 9.92.01h6.36c.98 0 1.96 0 2.97.01 15.66-.11 15.66-.11 20.82-5.22 3.63-2.98 6.99-4.04 11.5-5 .59-.13 1.19-.25 1.8-.39 5.11-.95 8.47-.5 13.01 1.95 3.52 2.47 5.72 5.79 8 9.38 0 5.19-.38 5.54-3.12 9.39-5.37 4.6-12.6 5.2-19.38 5.8-.82.08-1.64.16-2.49.25-2 .19-4.01.38-6.01.56l-3 3 1 7c-3 1.5-6.08 1.39-9.39 1.62-2.61.38-2.61.38-5.07 1.38-2.86 1.12-5.3 1.4-8.35 1.62-.98.08-1.95.15-2.96.23-.74.05-1.47.1-2.23.15l-2 2 4 6-2 4c-3.3 1.1-5.51 1.03-8.98.88-.57-.02-1.15-.05-1.74-.07-1.82-.08-3.64-.16-5.47-.25-1.24-.05-2.48-.1-3.71-.16-3.04-.12-6.07-.26-9.1-.4 0 5.09 4.69 9.24 8 13 2.55 2.48 5.25 4.74 8 7 1.44 1.27 2.88 2.54 4.31 3.81 2.15 1.91 4.26 3.66 6.69 5.19v2c.28.14.28.14 1.71.82 2.4 1.23 4.68 2.59 6.98 3.99 3.24 1.98 6.5 3.82 9.87 5.57 11.79 6.5 18.23 15.64 21.94 28.33.69 2.51 1.35 5.02 1.99 7.54.79 3.11 1.62 6.18 2.65 9.21 3.04 9 4.26 16.47 1.36 25.64-1.68 5.95-1.96 11.49-1.88 17.65.01 1.05.02 2.09.02 3.17.13 7.25.93 14.01 2.64 21.04.61 2.59.97 4.96 1.16 7.6.37 4.09 1.39 7.93 2.5 11.88.08.31.08.31.51 1.86.84 2.88 1.4 4.55 3.55 6.7 8.16.87 13.71-3.16 20-8 1.66-4.21 2.17-6.64 1-11-.2-1.27-.39-2.54-.56-3.81-.15-1.05-.29-2.11-.44-3.19 2.13-4.67 4.03-8.59 8-12h6c1.01 3.15.81 4.85 0 8-.19 5 .26 7.73 3 12 3.07 2.39 5.08 2.16 9 2 3.04-.92 3.04-.92 6.19-2.19.56-.22 1.13-.45 1.71-.68 4.47-1.81 8.84-3.83 13.21-5.89 2.15-.92 4.22-1.7 6.44-2.42 7.17-2.3 12.83-4.52 17.45-10.82 1.3-2.59 1.1-4.43 1.06-7.33-.01-1.1-.01-2.2-.02-3.33-.01-.58-.02-1.17-.02-1.77-.42-43.85-.42-43.85 8.83-63.37 3.06-6.9 3.54-14.82 1.25-22.04-.94-2.12-1.94-4.15-3.1-6.16-4.74-1.04-8.3-.85-13 0l-3-2v-7l-6 1-2 7c-9.3 8-9.3 8-16 8-4.27-3.76-6.37-9.04-9-14l-13-2c-1.15-2.31-1.07-3.42-.95-5.97l.12-2.45c.04-.87.09-1.74.14-2.64s.1-1.8.15-2.73c.31-5.6.82-11.15 1.54-16.71 1.4-10.96 2.13-22.04 1.95-33.09l-.03-2.22c-.03-1.34-.07-2.68-.13-4.02-.11-4.3.59-8.08 1.62-12.26 1.74-7.14 2.53-14.23 3.21-21.53.19-1.88.37-3.76.56-5.64l.48-5.04c.34-2.7.34-2.7 1.34-5.7.25-2.1.46-4.2.65-6.31.06-.63.11-1.26.17-1.91.12-1.36.25-2.72.37-4.08a1998 1998 0 0 1 1.2-13.12c.66-7.22 1.36-14.43 2.11-21.64l.18-1.77c.7-6.58 1.55-13.03 3.01-19.48 1.09-4.98 1.62-9.68 1.69-14.75.01-.61.02-1.22.04-1.85-.05-4.41-1.4-7.24-3.42-11.09-.51-2.77-.51-2.77-.69-5.38-.06-.87-.13-1.74-.2-2.64-.22-3.98 3.59-7.89 5.89-10.98 1.48-1.4 3.02-2.61 4.63-3.85 4.18-3.5 5.85-8.23 7.81-13.15 1.94-4.85 3.93-8.27 7.56-12 7.51-.36 13.99.19 21.21 2.34 6.5 1.53 10.67.29 16.4-2.81 8.01-5.11 10.47-12.93 13.39-21.53-1.02-6.14-1.02-6.14-5-10l-2-1v-2c-.66-.19-1.32-.37-2-.56-4.31-2.07-7.51-5.21-11-8.44.94-4.96 3.91-8.14 7-12 .48-.61.96-1.23 1.45-1.86 3.65-4.52 7.74-7.91 12.55-11.14.89-.62 1.77-1.24 2.69-1.88 5.32-1.8 10.74-1.34 16.31-1.12 5.31 3.18 5.31 3.18 7 7 .37 2.05.68 4.12.94 6.19.76 5.55 2.1 10.57 4.06 15.81 1.91 5.35 3.4 10.34 4 16-.47.8-.94 1.59-1.43 2.41-2.07 4.16-2.36 8.39-2.76 12.97-.08.83-.16 1.66-.25 2.51-.19 2.04-.38 4.07-.56 6.11l-1 1h-5a557 557 0 0 1-4.47-5.21c-1.07-1.25-2.16-2.47-3.28-3.67-2.02-3.42-2.54-7.24-3.25-11.12l-3 1c-6.31 15.83-6.31 15.83-4 24 1.95 4.4 4.34 7.98 7.31 11.75 3.51 4.55 6.58 9.18 9.4 14.19 1.26 2.01 2.57 3.44 4.29 5.06 4 4.91 4 4.91 4 7h7c.24-.58.49-1.17.74-1.77 1.46-2.59 3.11-4.07 5.38-5.98.73-.61 1.45-1.23 2.2-1.86C702 526 702 526 707 526c1.52 3.04 1.37 6.28 1.56 9.62.02.36.02.36.13 2.15.11 1.74.21 3.49.31 5.23 4.23 4.01 8.17 6.1 13.63 8.11 2.21.83 4.28 1.8 6.37 2.89l-1 5-5 3c1 4 1 4 7 8-2.4 2.78-4.62 3.67-8 5q-3.015 1.47-6 3c-5.58 2.85-5.58 2.85-8.57 3.93-8.1 3.55-14.17 11.6-18.43 19.07-.4.68-.8 1.36-1.21 2.06-3.81 6.93-4.38 12.82-2.56 20.47 1.11 3.55 2.44 7 3.77 10.47.51 1.37 1.02 2.74 1.54 4.11l.76 2.04c.51 1.37 1.03 2.74 1.54 4.11 1.06 2.84 2.13 5.67 3.28 8.48 1.05 2.69 1.68 5.38 2.32 8.2.56 2.06.56 2.06 1.63 4.22 1.58 4.8.97 9.72.76 14.72-.12 5.45.53 9.33 3.17 14.12.49.91.99 1.83 1.5 2.77.25.41.25.41 1.5 2.48.49.83.99 1.66 1.5 2.52 1.36 2.03 2.75 3.54 4.5 5.23 1.44 1.93 2.71 3.97 4 6 .56.83 1.11 1.65 1.69 2.5 1.49 2.84 1.94 5.33 2.31 8.5-1.37 4.39-3.78 7.44-6.66 10.94-2.01 3.1-2.6 5.67-1.92 9.31.25.77.51 1.53.77 2.31.29.87.57 1.75.87 2.64.31.93.62 1.85.94 2.8.27.94.54 1.89.81 2.86 2.14 7.22 5.31 13.08 9.39 19.33 3.92 6.11 4.61 10.54 3.8 17.81-.82 2.43-1.85 4.7-2.91 7.03-2.34 6.38-3.07 13.28-4.09 19.97 6 0 6 0 7.71-1.34 2.26-1.64 4.51-2.92 6.98-4.22 4.17-2.24 8.24-4.58 12.29-7.03 8.46-5.08 17.08-9.45 26.07-13.5 2.02-.94 4-1.95 5.99-2.97 3.68-1.86 7.42-3.27 11.34-4.56 6.35-2.11 6.35-2.11 8.62-4.38 1.87-.81 1.87-.81 4.15-1.59.42-.14.42-.14 2.53-.87.89-.3 1.78-.6 2.7-.92.9-.31 1.8-.62 2.74-.94 2.62-.9 5.25-1.79 7.88-2.68 1.25-.43 2.5-.85 3.75-1.28 3.94-1.33 7.84-2.64 11.87-3.66 4.75-1.28 9.05-3.78 13.38-6.06 1.65-3.6 2.23-6.32 2.12-10.27-.01-.99-.03-1.98-.04-3-.05-2.06-.11-4.12-.16-6.18-.13-8.37.9-14.06 5.27-21.36.15-.26.15-.26.92-1.56 2.03-3.38 4.25-6.57 6.58-9.75 3.36-4.7 5.48-9.43 7.31-14.88.11-.32.11-.32.68-1.94 2.76-8.51 1.25-17.86-2.55-25.9-.27-.5-.54-1.01-.82-1.54-2.75-6.02-2.45-14.23-.36-20.43 1.23-2.49 2.58-4.83 4.05-7.19.82-1.48 1.63-2.96 2.44-4.44.41-.73.83-1.47 1.25-2.22 1.42-2.54 2.8-5.1 4.19-7.65 2.72-5.02 5.59-9.95 8.51-14.87 1.65-2.89 3.14-5.83 4.61-8.82l5.94-11.88c.32-.66.64-1.33.98-2.01C902 585 902 585 903.36 582.8c4.3-7.32 4.87-14.51 3.64-22.8-.99-3.55-2.36-6.71-4-10-.68-1.66-1.35-3.33-2-5l-4-1-1.66-1.78c-2.45-2.32-4.9-3.97-7.78-5.72-3.74-2.29-7.15-4.74-10.56-7.5-2.51-1.77-5.05-3.49-7.6-5.22-2.4-1.78-2.4-1.78-4.27-3.87-5.85-5.24-14.2-4.21-21.57-4.16-1.09-.01-2.19-.02-3.31-.02-7.58.01-15.42.18-21.8 4.81-5.31 5.37-8.93 13.15-10.33 20.52-2.13 10-6.04 19.55-9.66 29.08-.11.32-.11.32-.72 1.92-.51 1.33-1.04 2.66-1.58 3.98-1.68 4.2-2.55 7.62-2.47 12.21 0 1 .01 1.99.01 3.02.3 2.73.3 2.73 1.31 4.64 1.44 3.05 1.2 6.04 1.11 9.34 0 .65-.01 1.3-.02 1.97-.07 4.75-.07 4.75-5.1 9.78-9 0-9 0-12.81-3.61-6.09-7.09-3.22-25.89-2.88-34.58.02-.48.02-.48.11-2.93.25-5.27.88-9.87 2.58-14.88l4-1 5 4 4-1c.2-.92.41-1.83.62-2.77.27-1.2.55-2.4.82-3.61.13-.6.27-1.2.41-1.82.54-2.4 1.04-4.59 2.15-6.8.23-1.87.41-3.75.56-5.62.09-1.01.17-2.01.26-3.04L796 537l6-8h2c.28-.58.55-1.15.84-1.75 1.49-2.88 3.26-5.54 5.04-8.25 3.22-5.75 2.58-12.71 1.43-19-.7-4.74.91-8.66 2.69-13 .76-.6 1.53-1.2 2.31-1.81C819 483 819 483 820.44 481.5c1.56-1.5 1.56-1.5 4.22-3.22 3.71-2.45 7-5.3 10.34-8.22 1.19-1.03 2.37-2.06 3.56-3.09.58-.5 1.15-1 1.74-1.51 1.61-1.39 3.25-2.73 4.9-4.07 2.47-2.05 4.59-4.25 6.68-6.7.59-.7 1.19-1.4 1.8-2.12 2.29-2.73 2.37-6.13 2.32-9.57-.81-2.58-1.85-4.96-2.96-7.42-1.05-2.61-1.51-4.93-1.92-7.7-1-5.41-3.07-9.14-7.12-12.88-3.19-2.03-6.54-3.49-10-5-2.22-1.08-4.42-2.2-6.62-3.31-1.03-.51-2.05-1.03-3.11-1.55C822 404 822 404 820 400h-2c-2.52-6.14-3.28-12.49-.69-18.75.55-1.09 1.11-2.17 1.69-3.25.37-.85.74-1.69 1.12-2.56 2.92-3.79 6.85-5.95 10.88-8.44 1-.66 2-1.33 3-2 8.21-.7 14.17.23 21 5 7.91 6.8 7.91 6.8 10.04 11.09 1.44 2.85 3.72 4.32 6.21 6.25 4.76 4.51 6.03 10.42 7.75 16.54 2.79 9.82 2.79 9.82 4.68 14.07 1.3 3 1.61 4.83 1.32 8.05-3.91-.47-6.6-1.77-9.91-3.75-2.54-1.52-5.12-2.95-7.71-4.37-.9-.5-1.8-1-2.73-1.51-6.52-3.37-6.52-3.37-9.65-3.37 10.07 21.39 10.07 21.39 20 27 7.42 2.32 16.75 1.62 24-1 3.29-2.03 6.12-4.43 9-7 .77-.67 1.54-1.33 2.34-2.02 1.9-1.64 3.79-3.3 5.66-4.98 5.21-.69 7.85.29 12.38 3 5.07 2.95 8.81 4.02 14.62 3 3.06-1 3.06-1 5-2 .13-.3.13-.3.81-1.81 1.22-2.24 2.39-3.55 4.27-5.25.6-.55 1.21-1.1 1.83-1.67l1.9-1.71c1.24-1.12 2.47-2.24 3.71-3.37.59-.54 1.19-1.08 1.8-1.64 5.69-5.26 10.84-11 15.68-17.05 1.79-2.24 3.65-4.36 5.56-6.5 2.53-2.86 4.55-5.67 6.44-9 1.29-1.71 2.63-3.35 4-5h2v-7q-1.14-.405-2.31-.81c-2.56-1.13-3.89-2.1-5.69-4.19v-3l2.34-.48c6.83-1.53 12.04-3.39 17.66-7.52.65-.43 1.31-.86 1.98-1.3 9.07-6.23 14.63-15.32 20.02-24.7 4.6-7.92 11.37-13.68 18.62-19.13 3.59-2.82 6.89-5.93 10.22-9.05C1061 297 1061 297 1064 296l2-4h2c.25-.57.49-1.14.75-1.72 1.45-2.65 3.18-4.52 5.25-6.72 4.13-4.45 7.85-9.13 11.46-14.01 2.62-3.49 5.42-6.51 8.54-9.55 1.31-1.81 1.31-1.81 2-3l5 1c-3.35 7.15-8.17 13.7-14 19h-2l-1 4-4 4h-2c-.19.68-.37 1.36-.56 2.06-1.68 3.44-3.77 5.43-6.5 8.06-7.71 7.47-12.05 14.46-14.37 24.95-.97 3.28-2.73 6.07-4.57 8.93h-2c-.23.56-.45 1.11-.69 1.69-1.36 2.39-2.99 4.04-4.94 5.96-6.41 6.33-12.09 13.09-17.29 20.44-2.37 3.34-4.84 6.6-7.33 9.85-.21.27-.21.27-1.25 1.65-2.32 3.02-4.73 5.77-7.5 8.41-3.34.07-5.8.07-9-1l-3 1c-.25.72-.5 1.44-.75 2.19-1.38 3.1-3.06 5.23-5.25 7.81-2.73 3.36-5.31 6.78-7.81 10.31-5.17 7.17-10.63 13.45-17.39 19.15-1.8 1.54-1.8 1.54-3.34 3.08-1.9 1.9-3.96 3.52-6.06 5.18-1.43 1.31-2.39 2.62-3.4 4.28h-2c-.11.47-.22.95-.34 1.43-.51 2.19-1.02 4.38-1.54 6.57-.17.74-.34 1.49-.52 2.25-.53 2.25-1.06 4.5-1.6 6.75-.08.33-.08.33-.47 1.99-.88 3.69-1.92 7.31-3.07 10.92-.27.85-.54 1.69-.82 2.56-.55 1.74-1.12 3.47-1.69 5.2-1.65 5.25-2.45 8.97-.95 14.33 1.49 2.41 1.49 2.41 3.31 4.5 8.25 9.99 11.14 19.3 11.07 32.26-.01 1.94 0 3.88.02 5.82.04 5.51.04 11.02.04 16.53 0 3.38.02 6.77.05 10.16.01 1.89-.01 3.79-.02 5.68.03 9.67 1.85 17.77 8.53 25.05l1.08 1.38c2.86 3.65 6.09 6.56 9.6 9.57 5.66 5.01 11.3 10.37 16.01 16.3 6.68 8.33 16.17 14.05 25 19.81 11.21 7.52 17.81 16.97 20.86 30.36.15.77.3 1.54.45 2.33 1.1 5.44 3.05 8.92 7.75 12.13.37.18.37.18 2.25 1.12 0 6 0 6-1.25 7.5-2.32 3.32-3.99 6.86-5.75 10.5-.68 1.4-1.37 2.79-2.06 4.19-.33.66-.66 1.33-1 2.02-.94 1.79-.94 1.79-2.5 4.17-4.57 8.34-6.5 19.19-7.44 28.62l1 3 1.55-.09c9.83-.57 19.61-1.09 29.45-.91l-1 4c-10.26 2.72-20.45 3.99-31 5l-1 5 1 1c8.29-.33 15.93-1.03 23.97-3.23 10.3-2.61 21.13-3.75 31.68-2.27 4.23.53 8.4.68 12.65.7.77.01 1.53.01 2.32.02 1.6.01 3.21.02 4.82.02 2.42.01 4.85.04 7.27.07 8.31.06 15.44-.3 23.29-3.31 1.33-.35 2.66-.69 4-1a259 259 0 0 0 9.38-2.5c.83-.24 1.66-.47 2.52-.72 2.1-.78 2.1-.78 4.1-2.78 1.44-.66 2.9-1.25 4.38-1.81 3.92-1.52 7.81-3.11 11.68-4.75 1.98-.82 3.96-1.63 5.94-2.44.38-.16.38-.16 2.3-.95 10.23-3.84 21.03-3.3 31.7-2.05l2 2c-2.75.92-4.82 1.22-7.68 1.43-.91.07-1.82.15-2.76.22-1.9.15-3.81.29-5.71.42-5.37.45-9.22 1.16-13.85 3.93-1.67.67-3.33 1.33-5 2-2.02.97-4.01 1.98-6 3 1.37 4.48 3.21 6.31 7 9 10.98 5.09 22.87 4.75 34.72 4.99 18.19.41 18.19.41 26.28 6.01.43.78.87 1.57 1.31 2.38 1.5 2.32 2.31 3.37 4.69 4.62v2c.89.29 1.77.58 2.69.88 3.31 1.12 3.31 1.12 5.43 2.12 4.01 1.39 7.99 1.72 12.19 2.12.84.09 1.67.18 2.54.27 2.05.21 4.1.41 6.15.61l-1 3c-.98.04-1.96.07-2.96.11-9.83.46-17.98 1.63-26.43 7.02-3.04 1.64-6.08 2-9.49 2-.75 0-1.49.01-2.26.01-.8-.01-1.6-.01-2.42-.02-.83 0-1.66 0-2.52-.01-6.04-.04-12.07-.21-18.11-.49-.38-.01-.38-.01-2.31-.09-3.59-.19-6.9-.56-10.36-1.51-8.74-2.35-17.97-2.2-26.95-2.21l-3.02-.03c-7.58-.02-12.69.41-18.48 5.72l-2.05 1.84C1144 786 1144 786 1143 788h-2c-.25.82-.51 1.64-.77 2.48-1.35 4.07-3.15 7.9-4.98 11.77-.35.75-.71 1.5-1.07 2.27-2.39 4.99-4.94 9.75-7.89 14.42-1.16 1.86-2.13 3.73-3.1 5.68-3.48 6.12-9.86 11.65-16.53 13.98-10.64 2.58-21.58-3.71-30.68-8.71-2.7-1.21-5.05-1.02-7.98-.89l-1 3-1.36 1.18c-5.96 5.18-11.81 10.49-17.64 15.82h-2c-1.46 2.65-2 3.89-2 7 9.88 2.43 19.41 3.59 29.56 4.06 8.66.43 17.08 1.07 25.63 2.49 3.35.54 6.62.82 10 1.01 5.6.33 5.6.33 7.81 1.44v3c-1.98.49-3.96.96-5.94 1.44-1.1.26-2.2.53-3.34.81-7.27 1.58-14.62 1.9-22.04 2-1.77.03-3.54.06-5.31.1-2.74.04-5.48.09-8.22.13-14.81.22-28.88 1.45-43.4 4.52-1.7.35-3.4.7-5.09 1.05-.8.16-1.6.33-2.42.49-4.4.9-8.82 1.69-13.24 2.46 1.55 4.38 3.19 6.29 7 9v2c-5.43 3.47-10.08 4.42-16.38 5-8.8.83-16.2 3.06-23.62 8h-2c2.27 4.53 2.88 4.5 7.06 6.81.94.52 1.88 1.05 2.85 1.58 2.74 1.43 5.47 2.65 8.31 3.84 2.94 1.27 5.8 2.7 8.66 4.15.6.3 1.21.61 1.84.92 4.15 2.09 8.23 4.29 12.27 6.59 2 1.1 4.02 2.11 6.07 3.11 2.78 1.36 5.35 2.87 7.94 4.56 9.04 5.77 19.58 7.67 30 9.44l3 3v2c-6.15 3.07-15.28 1.21-21.5-.81-4.68-1.68-8.65-3.99-12.81-6.69-2.14-1.2-3.98-2.01-6.26-2.82-4.78-1.76-9.34-3.91-13.93-6.12l-2.43-1.16c-3.82-1.82-7.62-3.67-11.39-5.59-2.66-1.34-5.26-2.49-8.12-3.37-.74-.24-1.49-.48-2.26-.72-.76-.24-1.52-.48-2.3-.72-1.61-.52-3.21-1.04-4.81-1.56-.71-.23-1.42-.46-2.15-.69-2.04-.75-2.04-.75-3.86-1.84-3.14-1.31-5.79-1.04-9.18-.91q-2.325 2.235-4.62 4.5l-1.3 1.24c-2.61 2.58-4.81 5.22-6.93 8.22-3.12 4.24-6.66 7.22-10.96 10.23-.74.52-1.48 1.03-2.24 1.57-6.95 4.65-13.89 6.78-21.94 8.71-3.28.87-6.42 2.09-9.57 3.34-1.06.42-2.11.84-3.19 1.27C897 958 897 958 896 960c-.83.37-1.65.74-2.5 1.12-7.21 3.66-12.99 9.16-18.85 14.62-4.27 3.97-8.72 7.66-13.27 11.29-2.27 1.88-4.34 3.85-6.38 5.97h-2l-1 4h-3l-2 4-3-1c1.8-4.05 4.46-6.87 7.44-10.1C853 988 853 988 854 985c-12.18 2.59-20.26 11.24-27.13 21.1-4.45 6.92-6.47 13.71-6.87 21.9l3.38.88c2.73.7 3.55 1.05 5.62 3.12h17l3 2v2c.99.03 1.98.05 3 .08 8.91.34 15.63.99 22.5 7.17.5.58.99 1.15 1.5 1.75-1 7-1 7-2 8v6c4.67 1.21 9.21 1.09 14 1l1-6 4-3c5 1 5 1 6.56 3.31 2.18 2.73 4.35 3.72 7.56 4.94 3.39 1.36 7.27 3.14 9.88 5.75l2 9 5 4-1 4c-5.31 2.3-10.49 2.99-16.19 3.75-.99.15-1.98.3-3 .46-5.88.79-10.62.69-16.38-.69-4.07-.87-8.16-.86-12.31-.96-9.04-.33-18.07-.99-26.12-5.56-2.04-2.65-2.04-2.65-1.75-5.5.57-3.59 2.14-6.43 3.91-9.57.93-2.13 1-3.63.84-5.93-2.02-1.45-4.04-2.88-6.06-4.31-.56-.41-1.13-.81-1.7-1.23-5.57-3.91-10.69-6.93-17.68-6.65-.43.02-.43.02-2.62.08-2.97.17-4.83 2.15-6.94 4.11-3.28 4.98-3 5.07-3 12 3 1 3 1 4.61.34.71-.27 1.41-.55 2.14-.84.7-.28 1.39-.56 2.11-.84 2.17-.67 3.88-.78 6.14-.66v-2l5-1v3c-.61.4-1.23.8-1.86 1.21-.81.53-1.62 1.06-2.45 1.6-.8.52-1.6 1.05-2.43 1.58-2.26 1.61-2.26 1.61-3.7 3.05-2.2 2.2-4.72 3.94-7.25 5.75-.51.37-1.02.73-1.55 1.11-3.74 2.7-3.74 2.7-5.76 2.7l-1 3c-.89.68-1.77 1.36-2.69 2.06-4.8 4.03-7.79 8.91-10.75 14.38-3.59 6.59-7.5 12.05-13.56 16.56-1.24 1.24-2.48 2.48-3.7 3.74-1.3 1.26-1.3 1.26-4.05 3.38-4.37 3.56-7.69 8.16-11.18 12.55-2.28 2.84-4.68 5.58-7.07 8.33.31.89.62 1.77.94 2.69.89 2.78 1.55 5.44 2.06 8.31l-6 6 2 4c15.46 4.4 34.53.53 50.32-1.27 7.55-.85 15.09-1.38 22.68-1.73v-5c-.53-.45-1.06-.89-1.61-1.36-6-5.13-6-5.13-8.45-8.33-2.91-3.47-6.35-5.99-10.95-6.56-1.66 0-3.33.11-4.99.25-5.11-3.18-9.6-5.97-13-11 0-9.44.91-11.91 6.88-18.5.69-.77 1.39-1.54 2.11-2.34 6.6-7.1 6.6-7.1 14.01-8.16 3.01 2 6.01 4 9 6.04.25.16.25.16 1.5 1.01l3 2.04c5.65 3.8 11.31 6.34 17.88 8.1.64.17 1.28.35 1.94.53 1.56.44 3.12.86 4.68 1.28 3.16 3.78 4.8 5.98 5 11-.6 3.5-1.41 6.82-3 10-.22 1.54-.41 3.08-.56 4.62-.09.82-.17 1.64-.26 2.48-.06.63-.12 1.25-.18 1.9l-4 4v4c20 0 20 0 24.5-3.25 4.33-3.04 8.68-5.58 13.5-7.75l5 1-1 4-3 1 1 3c7.32-.43 12.88-1.49 19.15-5.31 5.92-3.57 10.05-4.81 16.85-3.23 1.34.36 2.68.72 4.03 1.08 10.46 2.43 22.73-1.7 32.67-4.86 3.09-.91 6.22-1.49 9.39-2.08 4.41-.91 8.76-2.05 13.11-3.19 7.9-2.04 15.11-2.49 23.24-2.35 12.1.1 23.82-.48 35.39-4.34 2.74-.91 5.51-1.58 8.31-2.26 1.77-.44 3.5-.94 5.24-1.46 3.69-1.08 7.45-1.77 11.23-2.5 2.5-.52 4.91-1.26 7.35-2 3.9-.96 7.88-1.42 11.84-2 3.34-.52 6.59-1.22 9.88-2 2.82-.61 5.66-1.05 8.51-1.5 4.13-.67 7.84-1.65 11.81-3 2.5-.5 5.02-.93 7.53-1.37 4.41-.78 8.78-1.71 13.16-2.63.4-.08.4-.08 2.41-.5 4.39-.93 8.74-1.93 13.09-3.05 1.93-.48 3.86-.91 5.81-1.33 1.67-.37 3.33-.74 5-1.12 1.08-.24 2.17-.48 3.29-.73 11.57-2.69 22.75-6.49 33.99-10.34 3.24-1.11 6.49-2.19 9.74-3.26 2.11-.71 4.2-1.47 6.29-2.23 4.49-1.51 9-2.19 13.67-2.9 7.28-1.3 12.65-2.48 17.02-8.54 1.1-1.97 2.05-3.95 3-6 4.5-.79 7.52-.94 12 0 7.75.65 14.57-.86 22-3l2-2v-6l-7-1-4-4c.67-4.16 2.86-7.45 5-11h5c.51.68 1.02 1.35 1.54 2.05 3.73 4.83 7.03 8.96 12.46 11.95 15.04 1.72 28.17-6.49 41.2-12.93 7.46-3.68 14.65-6.63 22.81-8.32 4.78-1.2 8.82-2.9 11.87-6.94.7-.93 1.4-1.85 2.12-2.81l1-14 9-3 2-6 5-1 5 7c-1.13 5.63-2.76 6.72-7 10-2.62 1.74-5.3 3.39-8 5l-1 5c.61-.29 1.22-.58 1.84-.88 5.61-2.62 11.23-4.94 17.04-7.06 4.99-1.83 9.87-3.78 14.68-6.06 4.66-2.21 9.34-4.23 14.13-6.12.63-.26 1.27-.51 1.92-.77 2.74-1.08 5.49-2.15 8.25-3.2 13.41-5.18 13.41-5.18 17.14-8.91-.03-.65-.07-1.3-.11-1.98-.17-5.61.06-9.26 3.11-14.02 2.04-2.04 6.28-1.71 9.06-2.06.75-.11 1.51-.21 2.28-.32 4.85-.61 8.86-.47 13.66.38 6.34.58 10.86.15 16.41-3.12 1.59-.88 1.59-.88 3.59-.88l2-6c.65.03 1.3.07 1.98.11 5.61.17 9.25-.09 14.02-3.11l-1-9c8.04-4.29 8.04-4.29 12-4v2l6 2 3-6 3 1v2c11.8-6.26 19.12-15.04 25-27 1.18-2.09 2.43-4.14 3.69-6.19.34-.55.68-1.11 1.03-1.68 8.06-12.91 8.06-12.91 12.28-17.13.53-6.5-.16-10.67-4-16-6.04 0-6.04 0-9.81 3.19-.71.59-1.42 1.18-2.15 1.79-4.83 4.77-6.2 10.41-7.98 16.77-2.44 8.75-5.7 16.71-9.81 24.81l-1.3 2.57c-.31.62-.63 1.23-.95 1.87h-3c1-8 1-8 3-10l2-9 2-2v-6c-9.25-.8-16.94 3.3-24 9h-2c1.59-6.36 7.36-10.28 12.12-14.62 22.97-21.14 22.97-21.14 26.41-34.43 2.8-10.36 10.99-17.61 18.46-24.88 2.29-2.36 4.15-4.82 5.94-7.56 1.07-1.51 1.07-1.51 2.48-2.9 6.93-7.04 9.85-15.13 11.59-24.61-1-1-1-1-3.34-1.26-7.87-1.06-14.12-2.41-19.3-8.75-2.56-3.7-4.69-7.59-6.8-11.55-2.69-4.98-6.38-10.85-11.56-13.44l1-5h6c-1.15-2.47-2.05-4.05-4-6-.99-.19-1.98-.37-3-.56-5.77-1.5-9.86-6.39-14-10.44-.58-.56-1.15-1.12-1.75-1.7-2.71-2.68-3.25-3.32-4.25-7.3 4 0 4 0 5.79 1.5.79.64 1.58 1.28 2.4 1.94l2.35 1.93c2.57 1.7 4.43 2.25 7.46 2.63 1.14-12.57-6.64-27.55-13.85-37.57-1.33-1.56-2.66-3.03-4.15-4.43v-2c-.76-.29-1.53-.58-2.31-.88-2.69-1.12-2.69-1.12-4.09-2.09-6.26-4.03-14.01-4.43-21.25-4.65-7.05-.27-12.32-2.78-18.29-6.32-9.52-5.5-19.44-10.1-29.37-14.78a573 573 0 0 1-11.13-5.47c-.62-.31-1.25-.63-1.89-.95-2.61-1.31-5.2-2.62-7.8-3.94-1.46-.74-2.92-1.48-4.37-2.22-1.37-.69-2.74-1.39-4.1-2.09-10.16-5.13-10.16-5.13-16.28-4.3-.86.11-1.73.21-2.62.32-1.49.22-2.98.46-4.46.74-16.45 2.85-30.62-6.24-44.04-14.37-.75-.42-1.51-.84-2.28-1.27-8.7-4.99-13.44-12.52-18.14-21.09-1.37-2.28-2.6-3.89-4.58-5.64v-3l4-2c-.11-1.75-.24-3.5-.38-5.25-.03-.49-.03-.49-.21-2.95-.4-2.75-1.17-4.36-2.41-6.8-.32-1.85-.59-3.7-.81-5.56-1.42-9.1-4.86-16.75-11.19-23.44-5.04-1.41-8.8-.74-13.75.81-.57.18-1.13.36-1.72.54-2.18.72-4.18 1.41-6.08 2.72-2.17 1.39-4.36 1.55-6.89 1.93-5.15.79-5.15.79-7.47 2-2.92 1.4-5.91 1.65-9.09 2-4.73.57-9.38 1.23-14.06 2.12-6.65 1.17-13.21 1.06-19.94.88v-4c3-3 3-3 6.11-3.37l4.08-.51c.67-.07 1.34-.15 2.04-.23.66-.09 1.32-.17 2-.26.6-.07 1.2-.14 1.83-.22 1.94-.41 1.94-.41 4.31-1.37 2.82-1.11 5.52-1.75 8.49-2.37 7.62-1.68 15.02-4 22.45-6.36l4.02-1.26c3.22-1.01 6.45-2.03 9.67-3.05l1-3c-.72-.76-1.44-1.53-2.19-2.31-.4-.43-.81-.86-1.23-1.3-3.87-3.39-7.28-4.77-12.38-5.23-1.11-.11-2.23-.22-3.38-.34-.58-.05-1.17-.1-1.77-.16-3.03-.27-6.06-.58-9.09-.9-.59-.06-1.19-.12-1.81-.18-20.76-2.19-20.76-2.19-24.15-5.58-2.73-1.03-5.49-1.91-8.27-2.8-2.97-1.3-4.6-2.79-6.73-5.2 3.13-3.13 7.77-2.12 12.06-2.13 6.09.04 11.87.64 17.87 1.75 3.58.65 7.16 1.25 10.75 1.85 2.01.34 4.03.68 6.04 1.03 13.83 2.35 27.25 3.82 41.28 3.69 1.49-.01 2.97-.02 4.46-.02 10.35-.06 20.68-.37 31.02-.74 11.22-.39 22.43-.57 33.65-.61 1.81 0 3.62-.01 5.42-.03 24.76-.17 24.76-.17 31.07 5.59 9.19 7.72 20.41 11.62 32.38 11.62l-1-15c4.75-10.89 12.13-17.64 22-24 3.38-2.25 6.76-4.51 10.14-6.77 8.23-5.51 16.46-10.99 24.86-16.23.5-.31 1.01-.63 1.52-.95 5.36-3.34 10.72-6.63 16.21-9.75 15.82-9 15.82-9 18.27-14.3.31-2.32.51-4.54.62-6.88.04-.65.08-1.31.12-1.99.96-18.19.96-18.19-2.74-23.13l1-4h2c.21-.76.41-1.53.62-2.31 1.41-4.26 3.69-8.05 5.86-11.96 1.6-2.88 3.16-5.77 4.57-8.75.65-1.36 1.35-2.7 2.08-4.03 4.1-8.3 4.84-19.83 2.36-28.79-1.14-2.95-2.64-5.6-4.49-8.16h-4c.14.99.29 1.98.44 3 .95 6.71 1.84 13.21 1.56 20h-4l-3-3h-2c.48 1.15.96 2.29 1.44 3.44.26.64.53 1.27.81 1.93.75 1.63.75 1.63 1.75 2.63v5c-4.2-1.65-4.81-3.01-8-7l-1-13-5 1c-.3 4.88.14 8.05 2.34 12.42.66 1.58.66 1.58.66 4.58l3 1v5c-4.77-1.19-5.59-3.07-8-7-.69-1.66-1.36-3.32-2-5-1.12-1.81-1.12-1.81-2-3v-3l-5 1-1 3h2v5h-3c-3.6-5.73-5.63-10.21-6-17 4.16-4.48 8.59-7.42 13.83-10.52 7.23-4.44 10.65-9.4 13.17-17.48 11.34-1.98 22.59-3.46 34.08-4.27 5.53-.41 10.58-1.22 15.92-2.73 3.39-4.51 3.47-6.55 3-12-.8-2.76-1.83-5.38-3-8l-3-1c-.27.87-.54 1.73-.81 2.62-1.1 3.31-2.57 6.3-4.19 9.38l-7 1-4-3c.43-2.58.86-4.73 2.06-7.06 1.06-2.18 1.01-3.56.94-5.94-1.4.12-2.79.24-4.19.38-.77.06-1.55.13-2.35.21-2.72.45-4.91 1.37-7.46 2.41-23.97 7.42-23.97 7.42-33 3.75-.99-.58-1.98-1.15-3-1.75-.91-.5-1.82-.99-2.75-1.5-2.03-1.35-3.62-2.7-5.25-4.5 1.03-4.13 1.14-4.39 4-7 2.26-1.17 2.26-1.17 4.69-2.19.81-.34 1.61-.69 2.45-1.04.61-.25 1.23-.51 1.86-.77-1-5-1-5-3.31-7.06-2.49-2.48-3.63-4.8-4.89-8.04-2.36-5.59-5.1-10.35-10.8-12.9l-3-1c-4.21-4.91-4.8-9.74-5.51-15.98-.49-3.02-.49-3.02-1.54-5.03-1.34-2.79-1.14-5.16-1.07-8.24.01-1.08.03-2.16.05-3.27.14-4.93 4.16-9.6 7.07-13.48 6.19-5.23 12.08-6.49 20-6 8.44 1.12 15.55 3.11 21 10 3.4 6.27 3.73 12.4 4.19 19.44.08 1.11.16 2.22.25 3.37.19 2.73.38 5.46.56 8.19l4 1c3.33-3.8 6.52-7.65 9.56-11.69 5.17-6.62 9.21-9.06 17.44-10.31 3.23-.16 6.4-.02 9.62.19l2.71.15c7.04.44 14.04 1.2 21.05 2.1.95.12 1.91.24 2.89.37 5.08.69 9.84 1.66 14.73 3.19 1.33.34 2.66.68 4 1-.36-14.26-4.64-28.85-10-42-.16-.4-.16-.4-.96-2.42-.65-1.63-1.3-3.27-1.96-4.9-1.27-3.16-2.53-6.32-3.77-9.49-.41-1.06-.83-2.12-1.26-3.21-3.35-9.51-2.63-18.63.95-27.98 1.83-3.57 3.89-6.97 6.01-10.37 1.41-2.32 2.72-4.68 4.03-7.05 3.27-5.87 6.7-11.37 10.96-16.58.42-.54.84-1.08 1.27-1.64 2.06-2.59 4.12-4.75 6.73-6.8 11.61-9.39 17.1-26.7 21.94-40.31 3.96-11.09 3.96-11.09 5.62-15.08 6.75-16.26 6.89-33.2 2.44-50.17l5-1c.19.61.39 1.23.59 1.86.26.81.52 1.62.79 2.45.25.8.51 1.6.77 2.43.85 2.26.85 2.26 1.88 3.64 1.53 2.56 1.71 5.4 2.09 8.31.09.6.18 1.21.27 1.84.21 1.49.41 2.98.61 4.47h2c.29-.8.58-1.6.88-2.42a179 179 0 0 1 8.69-19.7c2.08-4.19 3.78-8.51 5.43-12.88"/><path fill="#FFF" d="M946 605c5.03 2.01 5.03 2.01 7.31 5.12.22.3.22.3 1.3 1.76 1.38 2.1 2.49 4.27 3.59 6.52 1.38 2.75 2.94 5.38 4.49 8.04 2.9 5.03 5.68 10.1 8.37 15.25 10.48 19.82 10.48 19.82 20.94 25.31 3.79.94 7.48 1.18 11.38 1.38 20.17 1.17 20.17 1.17 26.62 7.62-1.39 8.34-5.98 10.59-12.44 15.42-.57.43-1.14.86-1.72 1.3-.52.39-1.04.78-1.58 1.18-1.26 1.1-1.26 1.1-2.26 3.1h-2l.03 1.83c.04 2.77.07 5.53.09 8.29l.06 2.89c.03 5.11-.1 9.29-2.18 13.99l-1 1h-33c0-4 0-4 5-11-3.81.67-7.35 1.73-11 3v2l-5 5h-2l-2 4c-10.74 7.06-20.79 12.81-33 17-.95.33-1.91.66-2.89 1-3.39 1.09-6.79 2.03-10.23 2.94-.66.17-1.31.34-1.98.52-4.12 1.09-8.25 2.11-12.4 3.1-3.82.94-7.24 2.1-10.8 3.75-3.43 1.39-7.08 1.98-10.7 2.69-.86.18-1.73.35-2.62.53q-3.69.75-7.38 1.47c-1.67.33-3.33.67-5 1l-2-4c3.11-5.43 6.38-10.61 10.12-15.62 8.52-11.53 8.52-11.53 8.88-18.38l-1-2.88c-1.28-4-.91-6.03 0-10.12.17-.28.17-.28 1.01-1.73 1.43-3.28 1.45-6.47 1.61-10.02l.12-2.11c.1-1.72.18-3.43.26-5.14 4.58-4.4 7.88-5.87 14.12-6.69.75-.11 1.5-.23 2.27-.35 2.2-.33 4.41-.65 6.61-.96 21.42-3.28 21.42-3.28 28-9l-.03-1.74c-.22-13.93.05-26.16 4.75-39.42 2.24-6.52 4.02-13.2 5.91-19.83.14-.51.14-.51.88-3.08.26-.93.53-1.85.8-2.8C945 606 945 606 946 605M683 752l2.88 5.19c.53.96 1.06 1.92 1.61 2.92 1.51 2.89 1.51 2.89 2.56 5.62 1.92 4.58 6.73 6.98 10.95 9.27 1.98.55 3.99 1.02 6 1.44 4.71 1.09 7.65 2.09 11 5.56 0 6 0 6-3.61 10.1-4.45 6.09-4.81 10.67-4.64 18.09 0 .45 0 .45.02 2.73.07 6.61.07 6.61 1.23 10.08l4 3c-4.91 10.96-20.04 19.09-30 25-.77.47-1.54.94-2.33 1.43-7.67 4.53-15.61 6.41-24.29 8.04-2.96.66-5.67 1.69-8.47 2.82-1.84.69-3.62 1.16-5.53 1.59-4.6 1.06-8.96 2.71-13.37 4.36-3.31 1.22-6.52 2.18-10.01 2.76l-1-1c.43-17.64 2.11-34.49 11-50 1.03-3.09 1.09-5.1 1.03-8.33-.01-1.05-.03-2.09-.04-3.17-.03-2.2-.07-4.39-.12-6.59-.13-12.39-.13-12.39 4.25-17.29 1.88-1.62 1.88-1.62 4-1.95 5.93-.99 11.35-2.29 16.88-4.67 3-5 3-5 3-21 7.14-5.9 13.82-7.84 23-6m679.98-194.084c7.01.03 13.93.62 20.89 1.33.65.07 1.3.13 1.97.2 9.97 1 19.57 2.54 29.16 5.55.16.5.16.5 1 3l4 2c.92 2.75 1.11 4.36 1.06 7.19-.01.72-.02 1.43-.02 2.17-.02.54-.03 1.08-.04 1.64-3.59 1.25-6.32.69-10 0 1.1 1.78 2.2 3.55 3.31 5.32.16.25.16.25.94 1.51 1.3 2.07 2.54 3.97 4.29 5.68 2.05 2.1 3.21 4.47 4.58 7.06.52.97 1.04 1.94 1.58 2.94 2.02 3.88 2.4 6.07 2.3 10.49-1.25 1.11-2.5 2.21-3.75 3.32-.35.3-.35.3-2.11 1.86-6.36 5.42-10.47 6.05-18.64 5.64-.82-.04-1.65-.09-2.49-.13-24.9-1.58-24.9-1.58-33.01-9.69-.1-.55-.2-1.1-.3-1.67-3.48-18.94-3.48-18.94-6.83-26.37-.82-1.84-1.37-3.58-1.87-5.52-1.44-5.43-3.75-10.84-7-15.44v-5c3.74-3.73 6.04-3.06 10.98-3.08M0 1218c.31.08.31.08 1.9.48 4.24.71 8.42.76 12.72.84l3 .06c2.78.06 5.57.11 8.35.15 1.82.03 3.64.06 5.45.1 19.65.33 39.29.44 58.94.44h2.78l27.75-.03c27.2-.04 54.4-.07 81.6-.08h1.83c39.12 0 78.24.08 117.36.26 1.22 0 2.44.01 3.66.02 10.61.04 21.22.09 31.84.14 31.35.15 62.71.28 94.06.4.73 0 1.46 0 2.21.01 70.37.26 140.75.29 211.12.27h9.01c42.79-.01 85.59-.03 128.39-.05l46.54-.03h2.35l53.2-.03h24.66c15.73-.01 31.46-.01 47.2-.03 11.31-.01 22.63-.01 33.94-.01 6.07-.01 12.13-.01 18.2-.02 25.1-.03 50.19.1 75.28.52l5.65.09c3.51.06 7.02.12 10.52.19 1.04.01 2.07.03 3.13.05 5.84.11 11.57.49 17.36 1.26v1H0zm1706-845c5.75 2.88 7.14 7.04 9.25 12.94 2.25 6.09 5.04 11.81 7.99 17.59 1.69 3.31 3.28 6.65 4.82 10.03.24.53.49 1.06.74 1.6.48 1.07.97 2.14 1.46 3.21 1.28 2.82 2.57 5.63 3.86 8.44l.77 1.66c1.35 2.94 2.76 5.84 4.23 8.72 1.49 2.9 2.7 5.84 3.88 8.87 1.38 3.52 2.93 6.67 4.87 9.9 3.86 6.95 6.87 14.44 10.08 21.7 2.3 5.14 4.67 10.24 7.05 15.34l.96 2.05c11.89 25.5 11.89 25.5 15.04 29.95v4c-5-1-5-1-9-6v-2q-.87-.375-1.77-.75c-2.54-1.42-4.02-2.98-5.92-5.19-.6-.69-1.2-1.38-1.82-2.09C1761 511 1761 511 1760 508l-3-1c-2.59-3.16-5.18-6.32-7.77-9.49-1.12-1.37-2.24-2.74-3.36-4.12-7.63-9.41-13.91-18.78-19.08-29.72-.71-1.5-1.44-2.99-2.17-4.48-3.57-7.51-6.15-15.27-8.62-23.19-.09-.28-.09-.28-.54-1.71-5.47-17.41-8.11-35.13-9.46-53.29l-1-1c0-6 0-6 1-7M485 853h6c1 1.33 1 1.33 6 8 .27.33.27.33 1.64 2.02 3 4.37 2.65 9.54 2.88 14.67.23 4.09 1.12 7.42 2.48 11.31.63 2.63 1.13 5.28 1.62 7.94.14.67.27 1.35.41 2.05 1.62 8.6 1.04 15.1-3.03 23.01-4.82 5.62-4.34 4.03-14 5-.17-.16-.17-.16-1-1-9.46 0-9.04.03-14.75 5.25-.27.25-.27.25-1.63 1.49-2.94 2.69-5.83 5.41-8.62 8.26l-5-1c.48-5.13 1.98-7.96 5.06-11.88.38-.49.76-.99 1.15-1.5.92-1.22 1.85-2.42 2.79-3.62.69-6.79 1.09-13.54 1.21-20.36.01-.37.01-.37.04-2.21.06-3.01.12-6.02.15-9.03.03-2.24.07-4.47.12-6.7.01-.67.01-1.34.01-2.03.32-12.1 9.14-20.86 16.47-29.67m651-93 4 3c0 9 0 9-1.46 10.86-.63.81-1.26 1.62-1.92 2.45-.62.8-1.25 1.6-1.89 2.43A77 77 0 0 0 1131 784h-2c-.2.68-.39 1.36-.59 2.06-1.94 4.05-4.79 6.81-7.91 10-1.18 1.22-2.36 2.44-3.53 3.66-.26.27-.26.27-1.58 1.62-1.49 1.79-2.37 3.58-3.39 5.66-1.64 1.72-3.28 3.36-5 5-.88.89-1.75 1.79-2.62 2.69-1.77 1.72-3.27 3.09-5.38 4.31-5.42-.35-8.97-1.83-13.59-4.65-5.59-3.14-11.24-5-17.47-6.41-.37-.09-.37-.09-2.24-.52-4.71-1.07-9.4-1.84-14.2-2.42-5.74-.73-10.43-2.24-15.5-5 .55-4.65 2.24-7.32 5-11 4.38-2.19 10.12-1.88 14.73-.47 3.63 1.38 7.14 3.04 10.65 4.71 6.86 3.23 14.04 5.62 21.25 7.93 2.37.83 2.37.83 3.37 1.83h5v-2l-3-3c1.52-4.86 4.31-8.02 7.62-11.75.54-.62 1.08-1.24 1.64-1.87 1.57-1.8 3.15-3.59 4.74-5.38.41-.46.81-.92 1.23-1.4 1.65-1.86 3.3-3.72 4.96-5.56 2.46-2.77 4.87-5.59 7.27-8.41 5.06-5.34 6.7-3.63 15.54-3.63m625.967 460.884h11.99c6.91 0 13.81 0 20.72.01 9.98.01 19.96.01 29.94.01 16.2 0 32.4.01 48.6.02 15.73.01 31.45.02 47.17.02h2.95c4.87 0 9.74 0 14.62.01 40.35.01 80.7.02 121.04.05l1 3h-352c4.51-2.26 4.51-2.26 7.63-2.41l2.19-.12 2.42-.09 2.63-.12c13.02-.49 26.07-.4 39.1-.38"/><path fill="#FFF" d="M1438.62 588.734c16.96.15 32.28 3.56 47.38 11.27l2 3c-5.46 5.46-15.69 5.42-23.08 6.22-5.02.58-9.66 1.72-14.5 3.18-3.56.88-6.77.8-10.42.6-5.3-4.03-8.79-8.18-12-14v-2l-3-1c0-9.9 5.14-7.23 13.62-7.27M1015 741c-.59 5.79-2.3 12.04-6.3 16.43-3.49 2.83-6.17 3.86-10.66 3.8-3.04-.34-5.7-1.39-8.55-2.47-9.93-3.73-17.26-3.94-27.57-2.06-4.94.77-11.4 1.56-15.92-.7 1-5 1-5 3-7 2.11-.71 2.11-.71 4.75-1.38 3.75-.96 7.46-1.98 11.16-3.11 37.28-11.2 37.28-11.2 50.09-3.51m662-277 4 1c.23.64.46 1.29.7 1.95 1.09 3.02 2.19 6.04 3.3 9.05.4 1.08.79 2.16 1.2 3.27 2.54 6.8 5.38 13.33 8.8 19.73.41.77.83 1.54 1.25 2.34 1.96 3.58 3.99 7.09 6.19 10.54 2.02 3.17 3.84 6.43 5.62 9.74 2.49 4.62 5.14 8.94 8.26 13.17 3.68 5.29 4.54 9.8 4.68 16.21l-1 2-7-1c-.51-1.32-1.02-2.64-1.52-3.96-.45-1.16-.9-2.33-1.35-3.49-1.17-3.04-2.33-6.08-3.47-9.13-.22-.58-.43-1.15-.65-1.74-.61-1.6-1.2-3.2-1.8-4.8-1.19-2.83-2.61-5.27-4.21-7.88-.95-1.91-1.89-3.83-2.81-5.75-2.66-5.41-5.73-10.33-9.19-15.25l-2.17-3.16c-4.14-6.05-8.35-12.03-12.83-17.84-.58-6.15.46-9.94 4-15m-202 196c13-1.04 26.13 5.32 38 10l2.94 1.14c6.78 2.73 13.39 5.82 20 8.92.91.43 1.82.85 2.76 1.29 4.56 2.16 8.55 4.26 12.3 7.65v3c-5.47 1.46-9.08.35-14.31-1.56-.78-.27-1.56-.55-2.36-.83-1.63-.57-3.25-1.15-4.88-1.73-2.4-.86-4.82-1.71-7.23-2.55-7.99-2.78-15.85-5.64-23.53-9.21-.58-.26-1.15-.53-1.74-.8-7.49-3.49-14.76-7.26-21.95-11.32zm-439 161c1 .33 1 .33 6 2 3.32.73 6.66 1.38 10 2-1 4-1 4-13 12h-2l-1 3c-6.56 4.83-13.17 9.55-20 14l-4-1c.52-11.6 3.81-22.18 10-32 5.19-2.59 8.45-1.22 14 0m158-68c27.76 10.47 27.76 10.47 31 16-1 5-1 5-3 7q-2.625.075-5.25.12c-.97.03-1.95.05-2.95.08-2.91-.21-4.26-.88-6.8-2.2-3.06-.59-6.13-1.01-9.22-1.44-2.61-.53-3.71-1.03-5.78-2.56-1.82-.63-1.82-.63-3.69-1.12C1185 768 1185 768 1182 764c1.1-4.39 2.49-5.56 6-8 1.98-1.05 3.98-2.02 6-3M930.5 863.867h2.69c.93 0 1.85 0 2.81.01.93-.01 1.86-.01 2.81-.01h5.16c2.03.13 2.03.13 4.03 1.13.96 2.88 1.11 4.7 1.06 7.69-.01.81-.02 1.62-.02 2.45-.04 1.86-.04 1.86-1.66 3.68-5.18 4.77-9.46 5.63-16.26 5.37-.68-.01-1.37-.03-2.08-.04q-2.52-.06-5.04-.15c-3.24-3.48-5.56-6.06-6-11q1.425-1.965 2.88-3.93c.53-.74 1.06-1.47 1.61-2.22 2.45-3 4.3-2.97 8.01-2.98M1565 509l3 1c.72 8.69 1.14 17.27 1 26-2.22 2.22-8.04 1.05-11.06 1.06l-2.86.03c-5.14.02-10.01-.2-15.08-1.09l-1-2c3.62-4.32 7.19-8.36 11.61-11.86 1.78-1.46 3.35-3.09 4.96-4.74 3.01-2.94 6.24-5.65 9.43-8.4M1 988h1c.86 11.43 1.14 22.79 1.11 34.25v5.3c0 4.74 0 9.48-.01 14.22 0 4.97-.01 9.95-.01 14.92 0 9.4-.01 18.79-.02 28.19-.01 10.7-.01 21.41-.02 32.11-.03 65.98-.03 65.98-2.05 69.01-9.04-9.04-1.05-63.9-1.05-77.17v-7.03c-.01-.59-.01-1.17-.01-1.77 0-9.44-.01-18.88-.02-28.33-.01-9.68-.01-19.37-.01-29.05-.01-5.44-.01-10.88-.02-16.33v-15.35c0-1.88-.01-3.76-.01-5.64v-7.69c0-.75-.01-1.5-.01-2.28.02-5.13.02-5.13 1.13-7.36m993-161 3 1c.73 6.7-1.41 11.38-5 17-3.33 4.13-6.7 7.68-12 9h-3c-1.24-7.45 1.01-10.75 5-17 2.46-2.64 5.11-4.85 8-7 .74-.56 1.48-1.11 2.24-1.69.58-.43 1.16-.86 1.76-1.31m952-162c7 1 7 1 8 2 .72.1 1.43.2 2.17.3 7.93 1.19 15.23 3.17 22.83 5.7 1 4 1 4 0 6-4.06 1.1-6.72.81-10.75-.31-3.62-.98-7.21-1.93-10.87-2.69-4.88-1.06-9.62-2.51-14.38-4l-1-2zM924 829l1 4c-3 4-3 4-5.25 4.88-2.32.94-4.52 1.99-6.75 3.12-1.6-.11-3.21-.24-4.81-.38-.45-.03-.45-.03-2.71-.21-2.41-.4-3.61-.88-5.48-2.41v-5c8.32-4.14 14.83-5.72 24-4m677-153c1.58.11 3.17.24 4.75.38.44.03.44.03 2.67.21 2.58.41 2.58.41 4.39 1.38 3.34 1.57 6.8 1.76 10.44 2.15.37.05.37.05 2.26.27 1.83.21 3.66.41 5.49.61l1 4c-3.4 3.4-5.42 3.76-10 4-7.82-.56-13.59-3.66-20-8zm-508 97 1 3c-2.41 4.83-5.86 7.7-10 11-7.43-.86-7.43-.86-11-3v-7c2.39-.67 4.79-1.34 7.19-2l2.04-.58c3.69-1.01 6.91-1.66 10.77-1.42m348-208h7l2 2c.61.12 1.23.24 1.86.37.41.08.41.08 2.45.51l2.43.49c2.18.61 3.41 1.38 5.26 2.63 1.82.41 1.82.41 3.69.62 3.31.38 3.31.38 5.31 2.38l-1 4c-5 1-5 1-6.47.48-2.22-.78-4.44-1.57-6.65-2.36-.77-.26-1.53-.53-2.31-.81-4.18-1.48-8.36-2.92-12.57-4.31zm-284 183c5 2 5 2 8 7-7 9-7 9-11 10-5-6-5-6-5-12 1.32-.83 1.32-.83 8-5m-356 316c-1 5-1 5-2.21 5.95-3.04 2.46-5.6 4.76-7.79 8.05l-5 1c-1.31-4.17-2.27-7.59-2-12 4.32-4.32 11.27-3.1 17-3m105-203c2.88 1.29 4.87 2.66 7 5-2 5-2 5-10 11l-6-2-1-5c3.18-3.27 6.39-6.21 10-9m635-225h7c6 10 6 10 5 15l-4 1c-8-6-8-6-10-14zm77 255c5.05 1.32 8.19 3.46 12 7l-2 6-6 2c-5.43-3-5.43-3-7-6v-6zm-103-256 3 4-1 5c-5.78.24-10.51-.13-16-2l-2-4c4.6-4.6 10.09-4.21 16-3M868 889c7.96-.54 13.82.51 21 4l-1 4c-6.28.23-11.88-.6-18-2l-3-3zm826-513 2 1c1.76 6.05 1.62 12.92 0 19l-4-1c-3.3-6.59-2.89-8.33-1-15 1.62-2.56 1.62-2.56 3-4m-305 258c5.25.54 9.22 1.76 14 4l1 5c-5 1-5 1-7.75-.44-2.39-1.2-4.61-2.05-7.25-2.56l-1-5zm284-186c3 1 3 1 4 3 .07 1.37.08 2.75.06 4.12-.01.73-.02 1.45-.02 2.2C1677 459 1677 459 1675 462h-2v2l-3 1-1-1c.53-5.03 1.11-10.02 2-15z"/><path d="M1546 936h2l-1 5-2-1z"/></svg>